HIERARCHY
ROOT Hips
{
	OFFSET 0.00000 0.00000 0.00000
	CHANNELS 6 Xposition Yposition Zposition Zrotation Yrotation Xrotation 
	JOINT LHipJoint
	{
		OFFSET 0 0 0
		CHANNELS 3 Zrotation Yrotation Xrotation
		JOINT LeftUpLeg
		{
			OFFSET 1.57358 -1.76629 0.73362
			CHANNELS 3 Zrotation Yrotation Xrotation
			JOINT LeftLeg
			{
				OFFSET 2.40600 -6.61045 0.00000
				CHANNELS 3 Zrotation Yrotation Xrotation
				JOINT LeftFoot
				{
					OFFSET 2.66168 -7.31291 0.00000
					CHANNELS 3 Zrotation Yrotation Xrotation
					JOINT LeftToeBase
					{
						OFFSET 0.20870 -0.57341 2.12506
						CHANNELS 3 Zrotation Yrotation Xrotation
						End Site
						{
							OFFSET 0.00000 -0.00000 1.10557
						}
					}
				}
			}
		}
	}
	JOINT RHipJoint
	{
		OFFSET 0 0 0
		CHANNELS 3 Zrotation Yrotation Xrotation
		JOINT RightUpLeg
		{
			OFFSET -1.49299 -1.76629 0.73362
			CHANNELS 3 Zrotation Yrotation Xrotation
			JOINT RightLeg
			{
				OFFSET -2.43663 -6.69460 0.00000
				CHANNELS 3 Zrotation Yrotation Xrotation
				JOINT RightFoot
				{
					OFFSET -2.62959 -7.22474 0.00000
					CHANNELS 3 Zrotation Yrotation Xrotation
					JOINT RightToeBase
					{
						OFFSET -0.25784 -0.70841 2.21862
						CHANNELS 3 Zrotation Yrotation Xrotation
						End Site
						{
							OFFSET -0.00000 -0.00000 1.16452
						}
					}
				}
			}
		}
	}
	JOINT LowerBack
	{
		OFFSET 0 0 0
		CHANNELS 3 Zrotation Yrotation Xrotation
		JOINT Spine
		{
			OFFSET -0.00034 2.12399 -0.25450
			CHANNELS 3 Zrotation Yrotation Xrotation
			JOINT Spine1
			{
				OFFSET 0.05594 2.14379 -0.03318
				CHANNELS 3 Zrotation Yrotation Xrotation
				JOINT Neck
				{
					OFFSET 0 0 0
					CHANNELS 3 Zrotation Yrotation Xrotation
					JOINT Neck1
					{
						OFFSET -0.09835 1.62725 0.24211
						CHANNELS 3 Zrotation Yrotation Xrotation
						JOINT Head
						{
							OFFSET 0.10849 1.66041 -0.22648
							CHANNELS 3 Zrotation Yrotation Xrotation
							End Site
							{
								OFFSET 0.04385 1.68267 -0.10541
							}
						}
					}
				}
				JOINT LeftShoulder
				{
					OFFSET 0 0 0
					CHANNELS 3 Zrotation Yrotation Xrotation
					JOINT LeftArm
					{
						OFFSET 3.29108 0.79398 -0.68179
						CHANNELS 3 Zrotation Yrotation Xrotation
						JOINT LeftForeArm
						{
							OFFSET 5.15310 -0.00000 -0.00000
							CHANNELS 3 Zrotation Yrotation Xrotation
							JOINT LeftHand
							{
								OFFSET 3.75138 -0.00000 -0.00000
								CHANNELS 3 Zrotation Yrotation Xrotation
								JOINT LeftFingerBase
								{
									OFFSET 0 0 0
									CHANNELS 3 Zrotation Yrotation Xrotation
									JOINT LeftHandIndex1
									{
										OFFSET 0.52917 -0.00000 0.00000
										CHANNELS 3 Zrotation Yrotation Xrotation
										End Site
										{
											OFFSET 0.42663 -0.00000 0.00000
										}
									}
								}
								JOINT LThumb
								{
									OFFSET 0 0 0
									CHANNELS 3 Zrotation Yrotation Xrotation
									End Site
									{
										OFFSET 0.43315 -0.00000 0.43315
									}
								}
							}
						}
					}
				}
				JOINT RightShoulder
				{
					OFFSET 0 0 0
					CHANNELS 3 Zrotation Yrotation Xrotation
					JOINT RightArm
					{
						OFFSET -3.07414 1.06285 -0.44338
						CHANNELS 3 Zrotation Yrotation Xrotation
						JOINT RightForeArm
						{
							OFFSET -5.29613 -0.00000 0.00000
							CHANNELS 3 Zrotation Yrotation Xrotation
							JOINT RightHand
							{
								OFFSET -3.76144 -0.00000 -0.00000
								CHANNELS 3 Zrotation Yrotation Xrotation
								JOINT RightFingerBase
								{
									OFFSET 0 0 0
									CHANNELS 3 Zrotation Yrotation Xrotation
									JOINT RightHandIndex1
									{
										OFFSET -0.74732 -0.00000 0.00000
										CHANNELS 3 Zrotation Yrotation Xrotation
										End Site
										{
											OFFSET -0.60251 -0.00000 0.00000
										}
									}
								}
								JOINT RThumb
								{
									OFFSET 0 0 0
									CHANNELS 3 Zrotation Yrotation Xrotation
									End Site
									{
										OFFSET -0.61171 -0.00000 0.61171
									}
								}
							}
						}
					}
				}
			}
		}
	}
}
MOTION
Frames: 5
Frame Time: .0083333
-9.8887 15.0308 -2.7519 -9.5701 32.7316 -10.9032 0.0000 0.0000 0.0000 -11.1722 -2.4030 -29.9096 19.4016 19.9914 88.2502 -2.8136 -28.5858 5.5736 0.0212 -0.9404 -2.5849 0.0000 0.0000 0.0000 5.1881 6.6155 -22.2435 -8.6269 -16.5615 54.7907 -1.0268 1.9820 -18.5901 -2.5450 9.9193 -28.7159 3.1223 0.0973 18.0007 7.4593 1.3576 4.2685 5.9471 0.7252 -5.6124 -6.0604 1.2107 -16.1998 -2.7538 3.8947 18.8716 0.5382 1.1324 8.5325 -0.0000 0.0000 0.0000 -84.1417 12.9880 23.0631 117.1456 -57.0238 -83.2739 -0.0000 0.0000 -24.3565 14.5530 10.5589 2.7236 -7.1250 0.0000 -0.0000 -11.0203 40.6341 1.2030 -0.0000 0.0000 0.0000 55.1394 -8.7820 45.1302 -127.6270 53.9089 -91.9193 0.0000 -0.0000 -7.0178 -10.1675 23.5974 -4.1064 7.1250 -0.0000 -0.0000 11.7641 -6.4631 10.5965
-9.8197 14.9987 -2.5310 -9.1854 33.5277 -10.4723 0.0000 0.0000 0.0000 -12.3195 -2.1516 -31.6050 19.6239 19.9966 88.9003 -2.3929 -26.8351 3.7974 0.0392 -1.2783 -3.5150 0.0000 0.0000 0.0000 4.6947 5.4953 -21.9036 -8.8406 -16.7040 55.5371 -1.1824 2.5104 -19.8754 -2.7503 10.2794 -29.8863 2.7892 0.4851 17.7527 7.4523 1.7792 4.4420 6.0290 0.9365 -5.3370 -6.2681 0.9987 -16.7310 -2.5714 3.6864 19.2544 0.6164 1.0185 8.7555 0.0000 -0.0000 0.0000 -84.8851 12.9903 22.6277 116.3604 -57.2043 -82.6145 -0.0000 0.0000 -24.3808 14.0439 10.5087 2.6121 -7.1250 0.0000 -0.0000 -11.4498 40.5396 1.2783 0.0000 -0.0000 0.0000 54.8723 -6.6816 45.0496 -125.3195 54.7172 -90.0450 0.0000 -0.0000 -7.5345 -9.2956 23.5287 -3.7385 7.1250 -0.0000 -0.0000 12.2989 -6.6221 11.0629
-9.7518 14.9810 -2.3166 -9.4660 34.1059 -10.5793 0.0000 0.0000 0.0000 -12.7622 -1.5596 -33.2586 19.8217 19.9992 89.4787 -2.0759 -25.5317 1.9936 0.0817 -1.8442 -5.0752 0.0000 0.0000 0.0000 4.9867 4.6863 -21.1764 -8.9586 -16.7810 55.9468 -1.3183 2.6659 -20.9935 -3.0709 10.8089 -31.6381 3.0019 0.7019 18.1094 7.3766 2.1437 4.2119 5.7439 1.1150 -5.7980 -5.6556 1.1150 -16.1194 -2.5639 3.6531 19.4826 0.5117 1.0506 8.7297 -0.0000 -0.0000 0.0000 -85.1094 14.1877 22.1597 116.2615 -57.2265 -82.5313 -0.0000 0.0000 -24.4332 13.9462 10.1115 2.4964 -7.1250 0.0000 -0.0000 -11.4493 40.1316 1.3951 -0.0000 -0.0000 0.0000 54.9942 -5.1259 45.8878 -123.9036 55.1767 -88.8859 0.0000 -0.0000 -8.0655 -9.1006 23.1068 -3.5971 7.1250 -0.0000 -0.0000 12.4118 -7.0564 11.0625
-9.6678 14.9981 -2.1092 -10.0052 34.5665 -10.8593 0.0000 0.0000 0.0000 -13.0683 -0.7876 -34.8155 19.9338 19.9999 89.8065 -1.7064 -24.0283 -0.3689 0.2157 -2.9901 -8.2512 0.0000 0.0000 0.0000 5.5685 4.0757 -20.3681 -8.9958 -16.8050 56.0757 -1.4275 3.1360 -21.7822 -3.0007 10.6961 -31.2618 3.5728 1.1778 18.3496 7.5128 2.9092 4.2808 5.3837 1.4862 -5.8943 -5.8909 0.8211 -16.3797 -2.2998 3.2867 19.7351 0.5995 0.8791 8.8606 0.0000 -0.0000 0.0000 -85.2931 14.6798 22.5678 116.2376 -57.2319 -82.5113 -0.0000 0.0000 -24.0287 13.8369 9.8695 2.4175 -7.1250 0.0000 -0.0000 -11.4926 39.8792 1.4731 0.0000 -0.0000 0.0000 55.0493 -3.9153 45.6561 -123.5793 55.2782 -88.6195 0.0000 -0.0000 -8.2794 -9.1442 23.3024 -3.6434 7.1250 -0.0000 -0.0000 12.3881 -6.8598 11.0887
-9.5831 15.0008 -1.9066 -10.4991 35.1331 -11.1034 0.0000 0.0000 0.0000 -13.4250 -0.3079 -36.3506 20.0444 20.0000 90.1298 -1.3449 -22.3258 -2.3126 0.3364 -3.7272 -10.3104 0.0000 0.0000 0.0000 6.0690 3.2896 -19.5951 -9.0132 -16.8162 56.1356 -1.5270 3.2541 -22.5356 -3.0627 10.7959 -31.5945 4.0236 1.5318 18.4793 7.5513 3.4773 4.3108 5.0307 1.7600 -5.9486 -5.8416 0.6266 -16.4057 -2.1396 2.9794 19.8537 0.6095 0.7530 8.9083 0.0000 0.0000 0.0000 -85.2643 15.4277 22.7435 116.4132 -57.1923 -82.6589 -0.0000 0.0000 -23.2676 13.7307 9.4409 2.2952 -7.1250 0.0000 -0.0000 -11.4952 39.4397 1.5997 0.0000 0.0000 0.0000 55.3742 -2.8999 45.7845 -124.0950 55.1161 -89.0429 0.0000 -0.0000 -8.0781 -9.5421 23.5093 -3.8362 7.1250 -0.0000 -0.0000 12.1469 -6.6158 10.9211
